<?xml version="1.0" encoding="UTF-8"?>
<svg id="g-stumbling-stones3-Artboard_1-interactions-img" data-name="Ebene 1" xmlns="http://www.w3.org/2000/svg" baseProfile="tiny" version="1.2" viewBox="0 0 600 548">
  <g id="anno2">
    <path d="M234.168,95.312c6.2,4.166,11.168,10.142,14.131,16.999" fill="#000" stroke-width="0"/>
    <path d="M217.699,235.57c6.897-10.009,15.318-18.967,24.882-26.47" fill="#000" stroke-width="0"/>
    <path d="M153.408,178.428c20.582,2.717,41.163,5.433,61.745,8.15,6.47.854,13.085,1.752,18.892,4.73" fill="#000" stroke-width="0"/>
    <path d="M130,78.1c8.987,2.661,18.298,4.23,27.661,4.659,14.06.645,28.439-1.238,42.036,2.399" fill="#000" stroke-width="0"/>
    <path d="M204.325,46.68c1.705-8.869,6.631-17.083,13.652-22.765" fill="#000" stroke-width="0"/>
  </g>
  <g id="anno3">
    <path d="M317.477,75.505c-5.259,6.172-12.045,11.033-19.581,14.027" fill="#000" stroke-width="0"/>
  </g>
  <g id="anno4">
    <path d="M149.194,36.532c11.038,2.264,21.665,6.518,31.216,12.497" fill="#000" stroke-width="0"/>
    <path d="M140.852,122.164c18.904-2.609,38.118-2.964,57.105-1.055" fill="#000" stroke-width="0"/>
    <path d="M337.844,408.193c-1.596,5.58-5.172,10.347-8.677,14.974-5.713,7.542-11.426,15.084-17.138,22.625" fill="#000" stroke-width="0"/>
  </g>
  <g id="anno5">
    <path d="M355.811,194.128c-10.373,2.012-20.261,6.479-28.627,12.932" fill="#000" stroke-width="0"/>
  </g>
<style>
#g-stumbling-stones3-Artboard_1-interactions-img rect, #g-stumbling-stones3-Artboard_1-interactions-img circle, #g-stumbling-stones3-Artboard_1-interactions-img path, #g-stumbling-stones3-Artboard_1-interactions-img line, #g-stumbling-stones3-Artboard_1-interactions-img polyline, #g-stumbling-stones3-Artboard_1-interactions-img polygon { vector-effect: non-scaling-stroke; }
</style>
</svg>
